<?xml version="1.0" encoding="UTF-8"?>
<svg width="500px" height="474px" viewBox="0 0 500 474" version="1.1" xmlns="http://www.w3.org/2000/svg" xmlns:xlink="http://www.w3.org/1999/xlink">
    <title>logo</title>
    <g id="Page-1" stroke="none" stroke-width="1" fill="none" fill-rule="evenodd">
        <g id="logo" fill-rule="nonzero">
            <g id="Group">
                <path d="M479.634859,0 L20.3651412,0 C9.1382668,0 0,9.406037 0,20.9639727 L0,63.2132425 C0,68.7293087 4.17234664,73.3544304 9.65920156,73.9240506 C27.3709834,75.7546251 40.7254138,91.6796495 40.7254138,110.959104 C40.7254138,130.238559 27.3709834,146.163583 9.65920156,147.994158 C4.17234664,148.563778 0,153.1889 0,158.704966 L0,200.954236 C0,212.512171 9.13339825,221.918208 20.3651412,221.918208 L147.604674,221.918208 L120.486855,427.239533 C119.756573,432.755599 121.319377,438.203505 124.888023,442.575463 C128.300876,446.757546 133.169426,449.459591 138.602726,450.175268 L180.486855,455.70594 C185.954236,456.426485 191.085686,452.901655 192.370983,447.531646 C196.504382,430.214216 214.036027,419.055501 233.15482,421.582278 C252.268744,424.104187 266.304771,439.43038 265.803311,457.229796 C265.647517,462.745862 269.688413,467.487829 275.155794,468.208374 L317.044791,473.739046 C317.994158,473.865628 318.943525,473.928919 319.878286,473.928919 C330.189873,473.928919 339.143135,466.499513 340.491723,456.295034 L371.441091,221.918208 L479.634859,221.918208 C485.199611,221.918208 490.389484,219.654333 494.259981,215.545278 C497.964946,211.61149 500,206.431353 500,200.954236 L500,20.9639727 C500,9.406037 490.866602,0 479.634859,0 Z M478.466407,200.379747 L374.289192,200.379747 L363.427459,200.379747 L352.565725,200.379747 L172.166504,200.379747 L161.304771,200.379747 L150.447907,200.379747 L21.533593,200.379747 L21.533593,167.502434 C31.6114898,164.527751 40.7400195,158.607595 47.872444,150.30185 C57.1518987,139.498539 62.2638754,125.525803 62.2638754,110.959104 C62.2638754,96.3924051 57.1518987,82.4196689 47.872444,71.6163583 C40.7400195,63.3106134 31.6114898,57.3904576 21.533593,54.4157741 L21.533593,21.5384615 L478.466407,21.5384615 L478.466407,200.379747 Z M316.903603,376.04187 C316.290166,380.686465 312.332035,383.99221 308.057449,383.432327 L293.627069,381.523856 C289.352483,380.959104 286.387537,376.738072 287.000974,372.093476 C287.614411,367.453749 291.572541,364.143135 295.847128,364.707887 L310.277507,366.616358 C314.552093,367.18111 317.51704,371.402142 316.903603,376.04187 Z M275.092502,370.520935 C274.479065,375.165531 270.520935,378.471276 266.246349,377.906524 L251.815969,376.002921 C247.541383,375.438169 244.576436,371.217137 245.189873,366.572541 C245.803311,361.927945 249.761441,358.622201 254.036027,359.186952 L268.466407,361.095424 C272.740993,361.655307 275.70594,365.881207 275.092502,370.520935 Z M235,365.228822 C234.386563,369.868549 230.428432,373.179163 226.153846,372.614411 L211.723466,370.70594 C207.44888,370.141188 204.483934,365.920156 205.097371,361.280428 C205.710808,356.635833 209.673807,353.330088 213.943525,353.894839 L228.373905,355.798442 C232.648491,356.363194 235.613437,360.584226 235,365.228822 Z M164.420643,355.90555 C165.03408,351.260954 168.997079,347.955209 173.266796,348.519961 L187.702045,350.428432 C191.971762,350.993184 194.941577,355.214216 194.32814,359.853944 C193.714703,364.498539 189.751704,367.804284 185.481986,367.239533 L171.046738,365.33593 C166.77702,364.771178 163.807205,360.550146 164.420643,355.90555 Z" id="Shape" fill="#5651BE"></path>
                <path d="M96.835443,64.3816943 C101.518987,64.3816943 105.316456,60.8909445 105.316456,56.5822785 L105.316456,42.0253165 C105.316456,37.7117819 101.518987,34.2210321 96.835443,34.2210321 C92.1518987,34.2210321 88.3592989,37.7117819 88.3592989,42.0253165 L88.3592989,56.5822785 C88.3592989,60.8909445 92.1518987,64.3816943 96.835443,64.3816943 Z" id="Path" fill="#5F5BBC"></path>
                <path d="M96.835443,105.413827 C101.518987,105.413827 105.316456,101.918208 105.316456,97.6095424 L105.316456,83.0525803 C105.316456,78.7439143 101.518987,75.248296 96.835443,75.248296 C92.1518987,75.248296 88.3592989,78.7439143 88.3592989,83.0525803 L88.3592989,97.6095424 C88.3592989,101.918208 92.1518987,105.413827 96.835443,105.413827 Z" id="Path" fill="#5F5BBC"></path>
                <path d="M96.835443,145.851996 C101.518987,145.851996 105.316456,142.356378 105.316456,138.047712 L105.316456,123.49075 C105.316456,119.182084 101.518987,115.686465 96.835443,115.686465 C92.1518987,115.686465 88.3592989,119.182084 88.3592989,123.49075 L88.3592989,138.047712 C88.3592989,142.356378 92.1518987,145.851996 96.835443,145.851996 Z" id="Path" fill="#5F5BBC"></path>
                <path d="M96.835443,188.028238 C101.518987,188.028238 105.316456,184.532619 105.316456,180.223953 L105.316456,165.666991 C105.316456,161.358325 101.518987,157.862707 96.835443,157.862707 C92.1518987,157.862707 88.3592989,161.358325 88.3592989,165.666991 L88.3592989,180.223953 C88.3592989,184.532619 92.1518987,188.028238 96.835443,188.028238 Z" id="Path" fill="#5F5BBC"></path>
            </g>
        </g>
    </g>
</svg>